<svg xmlns:xlink="http://www.w3.org/1999/xlink" viewBox="0 0 37.9809 3.8592" style="shape-rendering:geometricPrecision; text-rendering:geometricPrecision; image-rendering:optimizeQuality; fill-rule:evenodd; clip-rule:evenodd" height="15.6125mm" width="153.653mm" xml:space="preserve" xmlns="http://www.w3.org/2000/svg">
 <defs>
  <style type="text/css">
   
    .fil0 {fill:#2B2A29;fill-rule:nonzero}
   
  </style>
 </defs>
 <g id="Layer_x0020_1">
  <metadata id="CorelCorpID_0Corel-Layer"></metadata>
  <path d="M-0 2.66628c0,0.00138425 0.0146582,0.0153503 0.0432577,0.0425408 0.0285995,0.0265231 0.0711403,0.0599922 0.126955,0.100457 0.0565069,0.0397723 0.126263,0.0802368 0.208601,0.119984 0.0830053,0.0404645 0.177876,0.0739582 0.28602,0.100457 0.108119,0.0272152 0.228104,0.0411813 0.36067,0.0425655 0.154862,-0.000692123 0.29299,-0.0237299 0.414384,-0.0697561 0.121369,-0.0453587 0.223926,-0.108144 0.307648,-0.188356 0.0836974,-0.0802368 0.147892,-0.172314 0.191842,-0.276948 0.0432329,-0.104659 0.0655539,-0.216264 0.0655539,-0.335556 -0.000692123,-0.117908 -0.020912,-0.221158 -0.0599922,-0.309057 -0.0390555,-0.0878996 -0.092077,-0.163934 -0.158348,-0.228104 -0.0662707,-0.0641944 -0.140921,-0.120009 -0.223926,-0.168136 -0.08303,-0.0474351 -0.168136,-0.0900007 -0.256728,-0.126955 -0.0885917,-0.0376712 -0.173698,-0.0739582 -0.256728,-0.108144 -0.0830053,-0.0341859 -0.157656,-0.0704482 -0.223926,-0.108119 -0.0662707,-0.0376712 -0.119292,-0.0809289 -0.158372,-0.129056 -0.0390555,-0.048152 -0.0593001,-0.104659 -0.0599922,-0.170213 0.000692123,-0.0704729 0.0209367,-0.131849 0.0599922,-0.185588 0.0397723,-0.0529968 0.0927939,-0.0948702 0.160449,-0.124854 0.0669876,-0.0300085 0.143022,-0.0446666 0.227436,-0.0453587 0.0746504,0.000692123 0.145099,0.00976387 0.211369,0.0272152 0.0662707,0.0167345 0.126263,0.0383634 0.180693,0.0641697 0.0544058,0.0251142 0.101841,0.0509452 0.140921,0.0767515 0.0397476,0.0258063 0.0704482,0.046743 0.0913849,0.0641697 0.0216288,0.0174514 0.0327769,0.0265231 0.0327769,0.0272152l0.234407 -0.439498c0,-0.000692123 -0.011865,-0.011865 -0.036287,-0.0334938 -0.0237052,-0.020912 -0.0593001,-0.0474351 -0.107427,-0.0788278 -0.0474351,-0.0313927 -0.106735,-0.0627854 -0.1779,-0.0941781 -0.0711403,-0.0313927 -0.15417,-0.057199 -0.248348,-0.0788278 -0.0941781,-0.0209367 -0.200196,-0.0320848 -0.317412,-0.0327769 -0.142997,0.000692123 -0.274847,0.022321 -0.395548,0.0648618 -0.121369,0.0432577 -0.226027,0.10325 -0.316003,0.180693 -0.0900007,0.0781357 -0.159065,0.168828 -0.209293,0.273463 -0.0495362,0.104634 -0.0746504,0.219057 -0.0753425,0.343219 0.000692123,0.113706 0.0209367,0.212778 0.0599922,0.297885 0.0397723,0.0857985 0.0927939,0.159757 0.159065,0.223234 0.0669629,0.0634775 0.141613,0.119292 0.224619,0.16742 0.08303,0.048152 0.168828,0.0914096 0.25742,0.130465 0.0885917,0.0383634 0.174415,0.0760346 0.25742,0.112322 0.08303,0.0355702 0.158372,0.0739335 0.224643,0.113706 0.0669629,0.0390555 0.119292,0.0837221 0.15904,0.13395 0.0390802,0.0495115 0.0593001,0.107427 0.0600169,0.173006 -0.000716841,0.0809289 -0.0216288,0.147892 -0.0614012,0.200913 -0.0397723,0.0537137 -0.092077,0.0934613 -0.157656,0.119984 -0.0648865,0.0258063 -0.135335,0.0390555 -0.212086,0.0390555 -0.0836974,-0.000692123 -0.163242,-0.0118402 -0.237892,-0.0327769 -0.0746256,-0.0209367 -0.142305,-0.046743 -0.203682,-0.0774436 -0.0614012,-0.0313927 -0.114423,-0.0620933 -0.159065,-0.093486 -0.0446419,-0.0306759 -0.0788278,-0.0564821 -0.10325,-0.0774189 -0.024422,-0.0209367 -0.0369791,-0.0320848 -0.0369791,-0.0328017l-0.29299 0.406029zm2.43187 -0.406029c0.000692123,0.193251 0.0307006,0.349522 0.0906928,0.468814 0.0599922,0.119984 0.145099,0.207192 0.255319,0.26229 0.110221,0.0544305 0.24207,0.081621 0.394856,0.0809289 0.0913849,-0.000692123 0.176491,-0.0132492 0.254627,-0.0383634 0.0788278,-0.024422 0.149993,-0.0579158 0.21347,-0.100457 0.0634775,-0.0418734 0.117908,-0.0893085 0.163934,-0.141613 0.0460509,-0.0530215 0.0823132,-0.107452 0.108836,-0.163242l0.00837963 0c0,0.000692123 -0.00140896,0.0153503 -0.00420217,0.0439498 -0.00207637,0.0279074 -0.00348533,0.0634775 -0.00417745,0.106735l0 0.242762 0.510638 0 0 -2.1347 -0.531575 0 0 0.979452c0,0.0962792 -0.0132492,0.186972 -0.0390555,0.273463 -0.0265231,0.0858232 -0.0648865,0.16255 -0.115807,0.229513 -0.0509204,0.0669876 -0.113706,0.119292 -0.187664,0.158372 -0.0739335,0.0383634 -0.159757,0.0578911 -0.256011,0.0585832 -0.0872074,-0.000692123 -0.154887,-0.0188356 -0.203014,-0.0550979 -0.0481272,-0.036287 -0.081621,-0.0872074 -0.100457,-0.152094 -0.0188356,-0.0648618 -0.0279074,-0.140896 -0.0272152,-0.228104l0 -1.26409 -0.531575 0 0 1.3729zm2.57838 1.59895l0.5316 0 0 -0.895755c-0.000716841,-0.0550979 -0.00210109,-0.0997398 -0.00420217,-0.133234 -0.00279321,-0.0328017 -0.00417745,-0.0502283 -0.00417745,-0.0509204l0.00837963 0c0,0.000692123 0.00766279,0.0111481 0.0230131,0.0306759 0.0153503,0.0195525 0.0390555,0.0432577 0.0704482,0.072574 0.0313927,0.0285995 0.071165,0.0578911 0.120009,0.0864906 0.0481272,0.0292916 0.105326,0.0530215 0.171597,0.0725493 0.0662707,0.0195277 0.141613,0.0300085 0.226027,0.0307006 0.140921,-0.000692123 0.270669,-0.0272152 0.38927,-0.0795199 0.117908,-0.0523294 0.221158,-0.12698 0.309057,-0.225335 0.0871827,-0.0976634 0.154862,-0.214879 0.203682,-0.35229 0.048152,-0.136744 0.072574,-0.290222 0.0732661,-0.460435 -0.000692123,-0.166035 -0.022321,-0.317412 -0.0662707,-0.453439 -0.0439498,-0.136744 -0.107452,-0.254627 -0.189765,-0.353699 -0.0830053,-0.0990724 -0.182078,-0.175107 -0.298577,-0.228821 -0.115807,-0.0537137 -0.246247,-0.0809289 -0.391346,-0.081621 -0.100457,0.000692123 -0.188356,0.0132492 -0.264416,0.036287 -0.0760346,0.0237052 -0.140204,0.0530215 -0.193918,0.0871827 -0.0537384,0.0349028 -0.0976882,0.0697808 -0.131157,0.104659 -0.0334938,0.0341859 -0.0579158,0.0634775 -0.0739582,0.0864906 -0.0153503,0.0237299 -0.0230131,0.036287 -0.0230131,0.0369791l-0.00837963 0c0,-0.00138425 0.00140896,-0.0160424 0.00420217,-0.0432577 0.00207637,-0.0279074 0.00348533,-0.0620686 0.00417745,-0.10325l0 -0.154862 -0.485549 0 0 2.97185zm0.51484 -1.89194c0.000692123,-0.117883 0.0153503,-0.219749 0.0446419,-0.304855 0.0293163,-0.0851064 0.0690639,-0.154862 0.119292,-0.209293 0.0509452,-0.0544058 0.107452,-0.0948702 0.171622,-0.121369 0.0634775,-0.025831 0.130465,-0.0383881 0.200221,-0.0383881 0.105326,0.000716841 0.19812,0.0286242 0.27764,0.08303 0.0795447,0.0550979 0.141613,0.132541 0.18628,0.232306 0.0446419,0.100457 0.0669629,0.21834 0.067655,0.354391 -0.000692123,0.106043 -0.0146334,0.199504 -0.0425408,0.281842 -0.0279074,0.0815963 -0.0662707,0.15066 -0.115115,0.207167 -0.0495362,0.0565069 -0.106043,0.0990724 -0.170905,0.128364 -0.0641944,0.0293163 -0.133258,0.0439498 -0.207192,0.0439498 -0.0878996,-0.000692123 -0.165343,-0.0195277 -0.231614,-0.05579 -0.0662707,-0.0369791 -0.121393,-0.0865153 -0.166035,-0.148609 -0.0446419,-0.0627854 -0.0781357,-0.132541 -0.100457,-0.210677 -0.022321,-0.0781357 -0.0334938,-0.158348 -0.0334938,-0.24207zm2.0426 1.89194l0.5316 0 0 -0.895755c-0.000716841,-0.0550979 -0.00210109,-0.0997398 -0.00420217,-0.133234 -0.00279321,-0.0328017 -0.00417745,-0.0502283 -0.00417745,-0.0509204l0.00837963 0c0,0.000692123 0.00766279,0.0111481 0.0230131,0.0306759 0.0153503,0.0195525 0.0390555,0.0432577 0.0704482,0.072574 0.0313927,0.0285995 0.071165,0.0578911 0.120009,0.0864906 0.0481272,0.0292916 0.105326,0.0530215 0.171597,0.0725493 0.0662707,0.0195277 0.141613,0.0300085 0.226027,0.0307006 0.140921,-0.000692123 0.270669,-0.0272152 0.38927,-0.0795199 0.117908,-0.0523294 0.221158,-0.12698 0.309057,-0.225335 0.0871827,-0.0976634 0.154862,-0.214879 0.203682,-0.35229 0.048152,-0.136744 0.072574,-0.290222 0.0732661,-0.460435 -0.000692123,-0.166035 -0.022321,-0.317412 -0.0662707,-0.453439 -0.0439498,-0.136744 -0.107452,-0.254627 -0.189765,-0.353699 -0.0830053,-0.0990724 -0.182078,-0.175107 -0.298577,-0.228821 -0.115807,-0.0537137 -0.246247,-0.0809289 -0.391346,-0.081621 -0.100457,0.000692123 -0.188356,0.0132492 -0.264416,0.036287 -0.0760346,0.0237052 -0.140204,0.0530215 -0.193918,0.0871827 -0.0537384,0.0349028 -0.0976882,0.0697808 -0.131157,0.104659 -0.0334938,0.0341859 -0.0579158,0.0634775 -0.0739582,0.0864906 -0.0153503,0.0237299 -0.0230131,0.036287 -0.0230131,0.0369791l-0.00837963 0c0,-0.00138425 0.00140896,-0.0160424 0.00420217,-0.0432577 0.00207637,-0.0279074 0.00348533,-0.0620686 0.00417745,-0.10325l0 -0.154862 -0.485549 0 0 2.97185zm0.51484 -1.89194c0.000692123,-0.117883 0.0153503,-0.219749 0.0446419,-0.304855 0.0293163,-0.0851064 0.0690639,-0.154862 0.119292,-0.209293 0.0509452,-0.0544058 0.107452,-0.0948702 0.171622,-0.121369 0.0634775,-0.025831 0.130465,-0.0383881 0.200221,-0.0383881 0.105326,0.000716841 0.19812,0.0286242 0.27764,0.08303 0.0795447,0.0550979 0.141613,0.132541 0.18628,0.232306 0.0446419,0.100457 0.0669629,0.21834 0.067655,0.354391 -0.000692123,0.106043 -0.0146334,0.199504 -0.0425408,0.281842 -0.0279074,0.0815963 -0.0662707,0.15066 -0.115115,0.207167 -0.0495362,0.0565069 -0.106043,0.0990724 -0.170905,0.128364 -0.0641944,0.0293163 -0.133258,0.0439498 -0.207192,0.0439498 -0.0878996,-0.000692123 -0.165343,-0.0195277 -0.231614,-0.05579 -0.0662707,-0.0369791 -0.121393,-0.0865153 -0.166035,-0.148609 -0.0446419,-0.0627854 -0.0781357,-0.132541 -0.100457,-0.210677 -0.022321,-0.0781357 -0.0334938,-0.158348 -0.0334938,-0.24207zm1.88356 -0.0125571c0.00138425,0.164651 0.0313927,0.315336 0.092077,0.452055 0.0599922,0.136027 0.143714,0.253935 0.251142,0.352983 0.107427,0.0997645 0.231614,0.176516 0.373919,0.23023 0.141613,0.0544058 0.295091,0.081621 0.459026,0.0823132 0.163242,-0.000692123 0.315336,-0.0279074 0.456949,-0.0823132 0.141613,-0.0537137 0.265083,-0.130465 0.37251,-0.23023 0.106735,-0.0990477 0.190457,-0.216956 0.25045,-0.352983 0.0606843,-0.136719 0.0913849,-0.287404 0.092077,-0.452055 -0.000692123,-0.163934 -0.0313927,-0.313927 -0.092077,-0.449954 -0.0599922,-0.136052 -0.143714,-0.253935 -0.251142,-0.353699 -0.107427,-0.0997645 -0.231614,-0.176491 -0.373919,-0.230897 -0.141613,-0.0544305 -0.294399,-0.0823379 -0.459026,-0.08303 -0.163242,0.000692123 -0.315336,0.0285995 -0.456949,0.08303 -0.140921,0.0544058 -0.265083,0.131133 -0.37251,0.230897 -0.106735,0.0997645 -0.190457,0.217648 -0.25045,0.353699 -0.0606843,0.136027 -0.0906928,0.28602 -0.092077,0.449954zm0.539954 0c0.000692123,-0.0990477 0.0174267,-0.189048 0.0502283,-0.269977 0.0334691,-0.081621 0.0795199,-0.151377 0.137411,-0.210677 0.058608,-0.058608 0.126288,-0.103942 0.202322,-0.136027 0.0767267,-0.0321095 0.15904,-0.0488441 0.246247,-0.0488441 0.0865153,0 0.167444,0.0167345 0.243479,0.0488441 0.0760346,0.0320848 0.142997,0.0774189 0.201605,0.136027 0.0578911,0.0593001 0.10325,0.129056 0.136744,0.210677 0.0327769,0.0809289 0.0495115,0.17093 0.0502283,0.269977 -0.000716841,0.0997645 -0.0174514,0.190457 -0.0502283,0.272078 -0.0334938,0.0809289 -0.0788525,0.151377 -0.136744,0.209985 -0.058608,0.0585832 -0.125571,0.103942 -0.201605,0.135335 -0.0760346,0.0320848 -0.156964,0.0481272 -0.243479,0.0481272 -0.0872074,0 -0.169521,-0.0160424 -0.246247,-0.0481272 -0.0760346,-0.0313927 -0.143714,-0.0767515 -0.202322,-0.135335 -0.0578911,-0.058608 -0.103942,-0.129056 -0.137411,-0.209985 -0.0328017,-0.081621 -0.0495362,-0.172314 -0.0502283,-0.272078zm2.23514 1.06735l0.5316 0 0 -0.845502c0,-0.0627854 0.00348533,-0.123494 0.010456,-0.181386 0.00697066,-0.058608 0.0188356,-0.113706 0.0355702,-0.166035 0.034878,-0.106043 0.08303,-0.191842 0.145099,-0.25742 0.0620933,-0.0662707 0.131849,-0.114398 0.207909,-0.145099 0.0760346,-0.0307006 0.152069,-0.0460509 0.228821,-0.0453587 0.0362623,0 0.0662707,0.00140896 0.0892838,0.00420217 0.0237299,0.00207637 0.0355702,0.00348533 0.036287,0.00417745l0 -0.523195c-0.000716841,-0.000716841 -0.0104807,-0.00210109 -0.0293163,-0.00420217 -0.0188356,-0.00279321 -0.0411566,-0.00417745 -0.0669629,-0.00417745 -0.109528,0.00138425 -0.209293,0.0258063 -0.299269,0.0739335 -0.0906928,0.0488441 -0.168136,0.113731 -0.233023,0.196044 -0.0641697,0.0823132 -0.113014,0.175107 -0.145791,0.278332l-0.00837963 0c0,-0.000692123 0.000692123,-0.00766279 0.00210109,-0.0216041 0.00138425,-0.013966 0.00279321,-0.0321095 0.00417745,-0.0544305 0.00140896,-0.0230131 0.00210109,-0.0481272 0.00210109,-0.0746504l0 -0.368333 -0.510663 0 0 2.1347zm1.73708 -0.782716c0.000692123,0.118575 0.0160424,0.221825 0.045334,0.308341 0.0292916,0.0857985 0.0690639,0.159065 0.1186,0.21834 0.0502283,0.058608 0.106043,0.106735 0.168112,0.143714 0.0620933,0.036287 0.12698,0.0648865 0.193251,0.0837221 0.0662707,0.0195277 0.13044,0.0327769 0.193226,0.0397723 0.0620933,0.00697066 0.1186,0.010456 0.168828,0.00976387 0.0509204,-0.000716841 0.0906928,-0.00279321 0.119292,-0.00627854 0.0285995,-0.00348533 0.0432577,-0.00558642 0.0439498,-0.00627854l0 -0.464612c-0.000692123,0.000692123 -0.00907175,0.00207637 -0.0264984,0.00417745 -0.0167593,0.00279321 -0.0404645,0.00417745 -0.0697561,0.00417745 -0.0376712,0.000716841 -0.0802368,-0.00348533 -0.127672,-0.0132492 -0.0474351,-0.00976387 -0.0941781,-0.0279074 -0.13882,-0.0558147 -0.0446666,-0.0279074 -0.081621,-0.0683471 -0.110937,-0.121369 -0.0292916,-0.0537137 -0.0446419,-0.124187 -0.045334,-0.211394l0 -0.828767 0.485549 0 0 -0.422739 -0.485549 0 0 -0.615297 -0.519018 0 0 0.615297 -0.288813 0 0 0.422739 0.276256 0 0 0.895755zm1.36454 -0.715754c0.000692123,0.175799 0.0243973,0.341118 0.0725493,0.496697 0.0481272,0.156271 0.116499,0.297885 0.2065,0.426249 0.0899759,0.128364 0.19812,0.239277 0.323691,0.332763 0.126263,0.0927691 0.267876,0.165318 0.42484,0.215547 0.156964,0.0509452 0.326484,0.0767515 0.508562,0.0774436 0.126263,-0.000692123 0.242762,-0.0125571 0.349497,-0.0355702 0.106735,-0.0230378 0.203707,-0.0530215 0.290222,-0.0893085 0.0864906,-0.0362623 0.162525,-0.0746504 0.228104,-0.115807 0.0662707,-0.0411566 0.121393,-0.0795199 0.165343,-0.115807 0.0446419,-0.0362623 0.0781357,-0.0662707 0.100457,-0.0892838 0.0230131,-0.0230131 0.0341859,-0.034878 0.0341859,-0.0355702l-0.284635 -0.38927c0,0.000692123 -0.0139413,0.0139413 -0.0404645,0.0390555 -0.0264984,0.0251142 -0.0648618,0.0565069 -0.11509,0.093486 -0.0495362,0.0369791 -0.110245,0.0746504 -0.180693,0.111605 -0.0704482,0.0369791 -0.149993,0.0683718 -0.238585,0.093486 -0.0885917,0.0251142 -0.184179,0.0383634 -0.287404,0.0390802 -0.155579,-0.00140896 -0.294399,-0.0300085 -0.417894,-0.0865153 -0.122778,-0.0565069 -0.228104,-0.134643 -0.314619,-0.232998 -0.0864906,-0.0990724 -0.152761,-0.212086 -0.198812,-0.339041 -0.0453587,-0.127672 -0.0683718,-0.262314 -0.0690639,-0.40462 0,-0.139512 0.0230131,-0.269977 0.067655,-0.392755 0.0446666,-0.122778 0.109528,-0.230897 0.194635,-0.325075 0.0858232,-0.0941781 0.190457,-0.168136 0.313235,-0.22185 0.123494,-0.0537137 0.263699,-0.0809289 0.420662,-0.081621 0.0948702,0.000692123 0.183487,0.011865 0.2658,0.0327769 0.0830053,0.0209367 0.157656,0.046743 0.224619,0.0774436 0.0662707,0.0313927 0.124187,0.0620933 0.172314,0.0927939 0.0474351,0.0313927 0.0844142,0.057199 0.110221,0.078111 0.025831,0.0209367 0.0390802,0.0321095 0.0390802,0.0328017l0.259497 -0.401827c0,-0.00140896 -0.0146334,-0.0153503 -0.0446419,-0.0425655 -0.0292916,-0.0264984 -0.0739335,-0.0606843 -0.132541,-0.100457 -0.0593001,-0.0397476 -0.132541,-0.0802121 -0.220441,-0.119984 -0.0878996,-0.0404645 -0.190457,-0.0739335 -0.306956,-0.101149 -0.116499,-0.0265231 -0.246964,-0.0411566 -0.392063,-0.0418487 -0.175799,0.000692123 -0.340425,0.0258063 -0.494596,0.0753425 -0.154887,0.0502283 -0.295091,0.120677 -0.421379,0.212754 -0.126263,0.0913849 -0.234382,0.200221 -0.325767,0.326484 -0.0913849,0.126288 -0.161858,0.2658 -0.211394,0.419278 -0.0488194,0.153478 -0.0739335,0.31672 -0.0746256,0.489726zm2.96762 0.431118c0.000716841,0.152786 0.0272152,0.2965 0.0795447,0.430426 0.0530215,0.134643 0.129056,0.253243 0.228821,0.355776 0.0997398,0.10325 0.219749,0.183487 0.360645,0.242095 0.141613,0.0585832 0.300678,0.0878996 0.477886,0.0892838 0.106735,-0.000692123 0.204399,-0.0111728 0.293682,-0.0320848 0.0885917,-0.0202446 0.168136,-0.0453587 0.237892,-0.0753425 0.0697561,-0.0300085 0.129056,-0.060709 0.1779,-0.0906928 0.0481272,-0.0300085 0.0851064,-0.0551226 0.110221,-0.0753425 0.0258063,-0.0209367 0.0383634,-0.0313927 0.0383634,-0.0320848l-0.205091 -0.380915c0,0.000716841 -0.0104807,0.00907175 -0.0307006,0.024422 -0.0209367,0.0153503 -0.0495362,0.034878 -0.0872074,0.0579158 -0.0369791,0.0230131 -0.081621,0.0467183 -0.132541,0.0697561 -0.0509204,0.0230131 -0.107427,0.0425408 -0.168828,0.0578911 -0.0620933,0.0153503 -0.126955,0.0237299 -0.196019,0.024422 -0.0802368,0 -0.156271,-0.011865 -0.229538,-0.0355702 -0.0732414,-0.024422 -0.13882,-0.0599922 -0.197403,-0.107452 -0.058608,-0.0474351 -0.106735,-0.106018 -0.143714,-0.176491 -0.0376712,-0.0704482 -0.0606843,-0.152761 -0.0697561,-0.245555l1.47336 0c0,-0.000692123 0.000692123,-0.00837963 0.00207637,-0.0230131 0.00140896,-0.0153503 0.00279321,-0.0334938 0.00420217,-0.0558147 0.00138425,-0.022321 0.00279321,-0.045334 0.00417745,-0.0676797 0.00140896,-0.0230131 0.00210109,-0.0425408 0.00210109,-0.0585832 0,-0.14233 -0.0202446,-0.274179 -0.0614012,-0.396957 -0.0404645,-0.122085 -0.101149,-0.229513 -0.180669,-0.32159 -0.0802368,-0.092077 -0.178592,-0.163934 -0.2965,-0.215571 -0.117883,-0.0516126 -0.253218,-0.0781357 -0.407388,-0.0788278 -0.159757,0.000692123 -0.305572,0.0279074 -0.438114,0.0823132 -0.131849,0.0537137 -0.246247,0.130465 -0.342527,0.23023 -0.0962792,0.0990477 -0.170905,0.216956 -0.223234,0.352983 -0.0530215,0.136744 -0.0795199,0.286712 -0.0802368,0.452055zm0.560891 -0.263699c0.0167345,-0.0927691 0.0481272,-0.171622 0.0941781,-0.237892 0.0460509,-0.0662707 0.103942,-0.116499 0.17439,-0.152069 0.0704729,-0.0355702 0.151402,-0.0537137 0.242095,-0.0537137 0.0788278,0 0.149276,0.0167345 0.212061,0.0509204 0.0620933,0.0334938 0.112322,0.0837221 0.149301,0.149301 0.0376712,0.0655539 0.0578911,0.147175 0.0613764,0.243454l-0.933401 0zm1.90865 1.33105l0.5316 0 0 -0.979452c0,-0.0502283 0.00207637,-0.0990477 0.00766279,-0.1472 0.00558642,-0.0474351 0.0153503,-0.093486 0.0300085,-0.137436 0.0264984,-0.0857985 0.0669629,-0.161141 0.120677,-0.22672 0.0537137,-0.0648618 0.1186,-0.115807 0.195327,-0.152761 0.0767515,-0.036287 0.16255,-0.0551226 0.25742,-0.0558147 0.0900007,0.000692123 0.159757,0.0188356 0.208601,0.0550979 0.0495115,0.036287 0.0836974,0.0865153 0.10325,0.152094 0.0188356,0.0648618 0.0278827,0.140921 0.0271905,0.228104l0 1.26409 0.527397 0 0 -1.3729c-0.000692123,-0.187664 -0.0292916,-0.341834 -0.0872074,-0.461819 -0.057199,-0.120009 -0.140896,-0.207909 -0.251142,-0.265108 -0.110221,-0.057199 -0.244146,-0.0857985 -0.402519,-0.0851064 -0.107427,0.000692123 -0.203707,0.0153503 -0.287404,0.0439498 -0.0837221,0.0285995 -0.156964,0.0655786 -0.218365,0.110221 -0.0620933,0.0453587 -0.113706,0.093486 -0.155555,0.144406 -0.0411813,0.0509204 -0.0732661,0.0990724 -0.0962792,0.145099l-0.00837963 0c0,-0.00138425 0.00140896,-0.0160424 0.00420217,-0.0432329 0.00207637,-0.0279074 0.00348533,-0.0620933 0.00417745,-0.10325l0 -0.246964 -0.510663 0 0 2.1347zm2.65792 -0.782716c0.000692123,0.118575 0.0160424,0.221825 0.045334,0.308341 0.0292916,0.0857985 0.0690639,0.159065 0.1186,0.21834 0.0502283,0.058608 0.106043,0.106735 0.168112,0.143714 0.0620933,0.036287 0.12698,0.0648865 0.193251,0.0837221 0.0662707,0.0195277 0.13044,0.0327769 0.193226,0.0397723 0.0620933,0.00697066 0.1186,0.010456 0.168828,0.00976387 0.0509204,-0.000716841 0.0906928,-0.00279321 0.119292,-0.00627854 0.0285995,-0.00348533 0.0432577,-0.00558642 0.0439498,-0.00627854l0 -0.464612c-0.000692123,0.000692123 -0.00907175,0.00207637 -0.0264984,0.00417745 -0.0167593,0.00279321 -0.0404645,0.00417745 -0.0697561,0.00417745 -0.0376712,0.000716841 -0.0802368,-0.00348533 -0.127672,-0.0132492 -0.0474351,-0.00976387 -0.0941781,-0.0279074 -0.13882,-0.0558147 -0.0446666,-0.0279074 -0.081621,-0.0683471 -0.110937,-0.121369 -0.0292916,-0.0537137 -0.0446419,-0.124187 -0.045334,-0.211394l0 -0.828767 0.485549 0 0 -0.422739 -0.485549 0 0 -0.615297 -0.519018 0 0 0.615297 -0.288813 0 0 0.422739 0.276256 0 0 0.895755zm1.33523 -0.284635c0.000716841,0.152786 0.0272152,0.2965 0.0795447,0.430426 0.0530215,0.134643 0.129056,0.253243 0.228821,0.355776 0.0997398,0.10325 0.219749,0.183487 0.360645,0.242095 0.141613,0.0585832 0.300678,0.0878996 0.477886,0.0892838 0.106735,-0.000692123 0.204399,-0.0111728 0.293682,-0.0320848 0.0885917,-0.0202446 0.168136,-0.0453587 0.237892,-0.0753425 0.0697561,-0.0300085 0.129056,-0.060709 0.1779,-0.0906928 0.0481272,-0.0300085 0.0851064,-0.0551226 0.110221,-0.0753425 0.0258063,-0.0209367 0.0383634,-0.0313927 0.0383634,-0.0320848l-0.205091 -0.380915c0,0.000716841 -0.0104807,0.00907175 -0.0307006,0.024422 -0.0209367,0.0153503 -0.0495362,0.034878 -0.0872074,0.0579158 -0.0369791,0.0230131 -0.081621,0.0467183 -0.132541,0.0697561 -0.0509204,0.0230131 -0.107427,0.0425408 -0.168828,0.0578911 -0.0620933,0.0153503 -0.126955,0.0237299 -0.196019,0.024422 -0.0802368,0 -0.156271,-0.011865 -0.229538,-0.0355702 -0.0732414,-0.024422 -0.13882,-0.0599922 -0.197403,-0.107452 -0.058608,-0.0474351 -0.106735,-0.106018 -0.143714,-0.176491 -0.0376712,-0.0704482 -0.0606843,-0.152761 -0.0697561,-0.245555l1.47336 0c0,-0.000692123 0.000692123,-0.00837963 0.00207637,-0.0230131 0.00140896,-0.0153503 0.00279321,-0.0334938 0.00420217,-0.0558147 0.00138425,-0.022321 0.00279321,-0.045334 0.00417745,-0.0676797 0.00140896,-0.0230131 0.00210109,-0.0425408 0.00210109,-0.0585832 0,-0.14233 -0.0202446,-0.274179 -0.0614012,-0.396957 -0.0404645,-0.122085 -0.101149,-0.229513 -0.180669,-0.32159 -0.0802368,-0.092077 -0.178592,-0.163934 -0.2965,-0.215571 -0.117883,-0.0516126 -0.253218,-0.0781357 -0.407388,-0.0788278 -0.159757,0.000692123 -0.305572,0.0279074 -0.438114,0.0823132 -0.131849,0.0537137 -0.246247,0.130465 -0.342527,0.23023 -0.0962792,0.0990477 -0.170905,0.216956 -0.223234,0.352983 -0.0530215,0.136744 -0.0795199,0.286712 -0.0802368,0.452055zm0.560891 -0.263699c0.0167345,-0.0927691 0.0481272,-0.171622 0.0941781,-0.237892 0.0460509,-0.0662707 0.103942,-0.116499 0.17439,-0.152069 0.0704729,-0.0355702 0.151402,-0.0537137 0.242095,-0.0537137 0.0788278,0 0.149276,0.0167345 0.212061,0.0509204 0.0620933,0.0334938 0.112322,0.0837221 0.149301,0.149301 0.0376712,0.0655539 0.0578911,0.147175 0.0613764,0.243454l-0.933401 0zm1.90865 1.33105l0.5316 0 0 -0.845502c0,-0.0627854 0.00348533,-0.123494 0.010456,-0.181386 0.00697066,-0.058608 0.0188356,-0.113706 0.0355702,-0.166035 0.034878,-0.106043 0.08303,-0.191842 0.145099,-0.25742 0.0620933,-0.0662707 0.131849,-0.114398 0.207909,-0.145099 0.0760346,-0.0307006 0.152069,-0.0460509 0.228821,-0.0453587 0.0362623,0 0.0662707,0.00140896 0.0892838,0.00420217 0.0237299,0.00207637 0.0355702,0.00348533 0.036287,0.00417745l0 -0.523195c-0.000716841,-0.000716841 -0.0104807,-0.00210109 -0.0293163,-0.00420217 -0.0188356,-0.00279321 -0.0411566,-0.00417745 -0.0669629,-0.00417745 -0.109528,0.00138425 -0.209293,0.0258063 -0.299269,0.0739335 -0.0906928,0.0488441 -0.168136,0.113731 -0.233023,0.196044 -0.0641697,0.0823132 -0.113014,0.175107 -0.145791,0.278332l-0.00837963 0c0,-0.000692123 0.000692123,-0.00766279 0.00210109,-0.0216041 0.00138425,-0.013966 0.00279321,-0.0321095 0.00417745,-0.0544305 0.00140896,-0.0230131 0.00210109,-0.0481272 0.00210109,-0.0746504l0 -0.368333 -0.510663 0 0 2.1347zm2.77094 0l0.414384 0 0 -1.09247 0.665525 0c0.135335,-0.000692123 0.260213,-0.0230131 0.373227,-0.067655 0.113014,-0.0446666 0.210677,-0.108144 0.293682,-0.191149 0.08303,-0.0823379 0.1472,-0.180693 0.193251,-0.295808 0.045334,-0.114398 0.0683718,-0.24207 0.0690639,-0.382991 -0.000692123,-0.140896 -0.0237299,-0.267876 -0.0690639,-0.38089 -0.0460509,-0.113706 -0.110221,-0.210677 -0.193251,-0.292298 -0.0830053,-0.0809289 -0.180669,-0.142997 -0.293682,-0.186255 -0.113014,-0.0432577 -0.237892,-0.0648865 -0.373227,-0.0655786l-1.07991 0 0 2.95509zm0.414384 -1.45244l0 -1.14267 0.60274 0c0.117883,0 0.219057,0.0230131 0.304163,0.067655 0.0844142,0.0439498 0.149993,0.108836 0.196019,0.192534 0.0453587,0.0844142 0.0683718,0.185588 0.0690639,0.304855 -0.000692123,0.119292 -0.0237052,0.22185 -0.0697561,0.307648 -0.045334,0.0865153 -0.111629,0.152786 -0.196736,0.199529 -0.0857985,0.0460509 -0.187639,0.0697561 -0.306932,0.0704482l-0.598562 0zm2.01749 0.874818c0.000716841,0.106043 0.0132739,0.194635 0.0369791,0.2658 0.024422,0.0718572 0.0565069,0.129056 0.0969713,0.173006 0.0404645,0.0439498 0.0857985,0.0767267 0.135335,0.0997645 0.0495362,0.022321 0.100457,0.0369544 0.152069,0.0446419 0.0523294,0.00835491 0.101173,0.011865 0.147916,0.0111481 0.0369544,-0.000692123 0.067655,-0.00207637 0.0934613,-0.00417745 0.025831,-0.00279321 0.0390802,-0.00417745 0.0404645,-0.00417745l0 -0.359978c-0.000692123,0 -0.00766279,0.000692123 -0.0216288,0.00210109 -0.0132492,0.00138425 -0.0299837,0.00207637 -0.0495115,0.00207637 -0.0425655,0.000716841 -0.0802368,-0.00627854 -0.114423,-0.0216288 -0.0341859,-0.0153256 -0.0606843,-0.0446419 -0.0809289,-0.0878996 -0.0202199,-0.0439498 -0.0299837,-0.107427 -0.0306759,-0.191842l0 -2.3063 -0.406029 0 0 2.37747zm1.10502 -0.184179c0,0.186972 0.0272152,0.339758 0.081621,0.459742 0.0544058,0.119984 0.135335,0.208576 0.242762,0.266492 0.107427,0.057199 0.240686,0.0857985 0.39975,0.0857985 0.103942,-0.000692123 0.19812,-0.0167345 0.283919,-0.046743 0.0857985,-0.0299837 0.161858,-0.0690639 0.228129,-0.117883 0.0655786,-0.048152 0.121369,-0.100457 0.166035,-0.156964 0.0446419,-0.0558147 0.078111,-0.110937 0.100457,-0.163959l0.00835491 0c0,0.000716841 -0.00138425,0.0160424 -0.00417745,0.0446666 -0.00210109,0.0285995 -0.00348533,0.0655539 -0.00417745,0.110221l0 0.280433 0.393447 0 0 -2.11797 -0.406004 0 0 0.992009c0,0.105351 -0.0153503,0.205808 -0.046743,0.30137 -0.0307006,0.0955871 -0.0753425,0.180693 -0.134643,0.255344 -0.0593001,0.0746256 -0.131157,0.133926 -0.215571,0.176491 -0.0851064,0.0432577 -0.181386,0.0655786 -0.289505,0.0662707 -0.0844142,-0.000692123 -0.152786,-0.0139413 -0.205091,-0.0411566 -0.0523294,-0.0272152 -0.0927939,-0.0648865 -0.120701,-0.112322 -0.0279074,-0.0481272 -0.0474351,-0.103942 -0.057199,-0.168112 -0.010456,-0.0635022 -0.0153503,-0.131849 -0.0146582,-0.205808l0 -1.26409 -0.406004 0 0 1.35616zm2.36073 0.502283c0,0.000716841 0.0111481,0.011865 0.0334691,0.0321095 0.0230378,0.020912 0.0558147,0.0460262 0.0997645,0.0767267 0.0439498,0.0307006 0.0983556,0.0614012 0.163242,0.092077 0.0648865,0.0300085 0.139537,0.0558147 0.224643,0.0767515 0.0843895,0.0202199 0.178568,0.0313927 0.282534,0.0320848 0.155555,-0.00138425 0.290889,-0.0279074 0.405312,-0.081621 0.114398,-0.0530215 0.202298,-0.125571 0.265083,-0.217648 0.0627854,-0.0927939 0.0948702,-0.197428 0.0955871,-0.316028 -0.00140896,-0.0983556 -0.0209367,-0.183462 -0.0600169,-0.253935 -0.0390555,-0.0704482 -0.0913849,-0.13044 -0.155555,-0.179977 -0.0648865,-0.0495362 -0.135335,-0.092077 -0.212778,-0.128364 -0.0774436,-0.0355702 -0.15417,-0.0683718 -0.231614,-0.0983556 -0.0774189,-0.0293163 -0.147892,-0.0593001 -0.212754,-0.0900007 -0.0641944,-0.0300085 -0.116524,-0.0648865 -0.155579,-0.10325 -0.0390555,-0.0383634 -0.0593001,-0.0844142 -0.0599922,-0.138128 0.000692123,-0.0613764 0.0181435,-0.110913 0.0509204,-0.149276 0.0328017,-0.0383881 0.0760346,-0.0662955 0.128364,-0.0837221 0.0523294,-0.0181435 0.108836,-0.0265231 0.168136,-0.0265231 0.0836974,0.000716841 0.158348,0.0104807 0.223234,0.0293163 0.0648618,0.0188356 0.119292,0.0404645 0.163934,0.0648618 0.0446419,0.024422 0.0781357,0.0460509 0.101149,0.0648865 0.0230131,0.0181435 0.034878,0.0279074 0.034878,0.0292916l0.163242 -0.305547c0,-0.000692123 -0.00907175,-0.00907175 -0.0264984,-0.024422 -0.0174514,-0.0153503 -0.0439498,-0.034878 -0.0795447,-0.0578911 -0.0362623,-0.0230131 -0.0809042,-0.046743 -0.135335,-0.0697561 -0.0544058,-0.0230378 -0.117883,-0.0425655 -0.191149,-0.0579158 -0.0739335,-0.0153503 -0.156964,-0.0237052 -0.249733,-0.0243973 -0.106043,0 -0.205808,0.0132492 -0.297885,0.0397476 -0.0927691,0.0265231 -0.173698,0.0655786 -0.243454,0.117191 -0.0704729,0.0516373 -0.124879,0.114423 -0.164651,0.189073 -0.0390555,0.0746256 -0.0593001,0.160449 -0.0599922,0.256703 0.00138425,0.0976882 0.0209367,0.182078 0.0599922,0.252551 0.0397723,0.0697561 0.0913849,0.129748 0.155579,0.179977 0.0648618,0.0495362 0.135335,0.0921017 0.212754,0.128364 0.0774436,0.036287 0.15417,0.0697561 0.231614,0.0997645 0.0774436,0.0299837 0.147892,0.0606843 0.212778,0.092077 0.0641697,0.0313927 0.116499,0.0662707 0.155555,0.106043 0.0390802,0.0390555 0.0593001,0.0864906 0.0600169,0.141613 -0.000716841,0.057199 -0.0181435,0.105351 -0.0523294,0.144406 -0.0334938,0.0390555 -0.0767515,0.0690639 -0.129748,0.0892838 -0.0530215,0.0195525 -0.109528,0.0300085 -0.169521,0.0300085 -0.0739582,-0.000692123 -0.14233,-0.00907175 -0.204423,-0.0258063 -0.0627607,-0.0160424 -0.118575,-0.0369791 -0.168112,-0.0614012 -0.0495362,-0.024422 -0.092077,-0.0481272 -0.126955,-0.0725493 -0.0349028,-0.024422 -0.0614012,-0.045334 -0.0795447,-0.0613764 -0.0181435,-0.0167593 -0.0279074,-0.0251142 -0.0279074,-0.025831l-0.196711 0.288813z" class="fil0"></path>
 </g>
</svg>
