<svg width="507" height="136" viewBox="0 0 507 136" fill="none" xmlns="http://www.w3.org/2000/svg">
<path d="M144 80.3119V94.1575H153.668V80.9167C153.668 79.6315 154.172 78.3895 155.085 77.4823C155.988 76.5751 157.223 76.0567 158.501 76.0567H168.416C173.035 76.0567 177.471 74.2099 180.737 70.9159C184.002 67.6327 185.839 63.1723 185.839 58.5284C185.839 53.8844 184.002 49.424 180.737 46.13C177.471 42.8468 173.035 41 168.405 41H144V58.3016H153.668V50.1476H167.761C169.952 50.1476 172.047 51.0224 173.593 52.5776C175.14 54.1328 176.01 56.2388 176.01 58.442C176.01 60.6452 175.14 62.7511 173.593 64.3063C172.047 65.8615 169.952 66.7363 167.761 66.7363H157.524C155.751 66.7363 153.99 67.0819 152.357 67.7731C150.714 68.4535 149.231 69.4579 147.974 70.7215C146.718 71.9851 145.729 73.4863 145.042 75.1279C144.354 76.7587 144 78.5299 144 80.3119Z" fill="#1B1340"/>
<path d="M187.332 94.1574V73.0651C187.332 64.4575 192.327 57.6103 202.328 57.6103C203.928 57.5887 205.529 57.7615 207.097 58.1395V66.8119C205.958 66.7363 204.981 66.7363 204.519 66.7363C199.223 66.7363 196.946 69.1771 196.946 74.1235V94.1574H187.332Z" fill="#1B1340"/>
<path d="M209.975 76.2728C209.975 65.6889 217.924 57.6213 228.988 57.6213C240.052 57.6213 248.001 65.6889 248.001 76.2728C248.001 86.8568 240.052 95 228.988 95C217.924 95 209.975 86.846 209.975 76.2728ZM238.527 76.2728C238.527 70.2573 234.51 65.9913 228.988 65.9913C223.456 65.9913 219.45 70.2465 219.45 76.2728C219.45 82.364 223.467 86.5544 228.988 86.5544C234.52 86.5544 238.527 82.3532 238.527 76.2728Z" fill="#1B1340"/>
<path d="M278.744 76.2728C278.744 65.6889 286.693 57.6213 297.757 57.6213C308.81 57.6213 316.759 65.6889 316.759 76.2728C316.759 86.8568 308.81 95 297.757 95C286.693 95 278.744 86.846 278.744 76.2728ZM307.285 76.2728C307.285 70.2573 303.268 65.9913 297.746 65.9913C292.225 65.9913 288.208 70.2465 288.208 76.2728C288.208 82.364 292.225 86.5544 297.746 86.5544C303.268 86.5544 307.285 82.3532 307.285 76.2728Z" fill="#1B1340"/>
<path d="M321.754 94.1576V73.8321C321.754 64.3929 327.738 57.6105 338.415 57.6105C349.017 57.6105 355 64.3821 355 73.8321V94.1576H345.461V74.5881C345.461 69.3393 343.109 66.0561 338.415 66.0561C333.721 66.0561 331.368 69.3285 331.368 74.5881V94.1576H321.754Z" fill="#1B1340"/>
<path d="M275.865 66.0663H265.489V79.3935C265.489 84.0375 267.154 86.1651 271.923 86.1651C272.374 86.1651 273.513 86.1651 274.952 86.0895V93.9303C272.987 94.4595 271.247 94.7727 269.345 94.7727C261.321 94.7727 255.864 89.9019 255.864 80.6895V66.0663H249.419V58.3768H251.031C251.664 58.3768 252.298 58.2472 252.878 58.0096C253.469 57.7612 253.995 57.4048 254.446 56.9512C254.898 56.4976 255.252 55.9684 255.499 55.3744C255.746 54.7804 255.864 54.154 255.864 53.5168V46.27H265.478V58.3768H275.855V66.0663H275.865Z" fill="#1B1340"/>
<path d="M374 42.3717H387.505L400.164 73.4366C401.292 76.0397 402.257 78.6969 403.071 81.4081H403.201C404.014 78.6969 404.98 76.0289 406.108 73.4366L418.767 42.3717H432.271V94.1754H422.487V59.4704C422.476 58.3254 422.531 57.1805 422.65 56.0463H422.487C422.183 57.2669 421.782 58.4658 421.272 59.6216L407.247 93.5705H399.133L385.064 59.6216C384.554 58.455 384.12 57.2669 383.773 56.0463H383.621C383.73 57.1805 383.784 58.3254 383.773 59.4704V94.1862H374V42.3717Z" fill="#6D4AFF"/>
<path d="M465.735 59.9997C468.566 61.4795 470.909 63.7478 472.482 66.5238C474.163 69.5374 475.009 72.9507 474.944 76.3963V94.1755H466.375L465.768 88.8396C464.65 90.773 463.012 92.35 461.038 93.4086C458.923 94.4995 456.558 95.0504 454.172 94.9964C451.124 95.0288 448.13 94.2187 445.516 92.6525C442.869 91.0539 440.721 88.764 439.289 86.042C437.727 83.0392 436.946 79.7016 437.012 76.3207C436.968 72.9939 437.825 69.721 439.485 66.8262C441.112 64.0179 443.466 61.7064 446.318 60.1402C449.269 58.5091 452.588 57.6666 455.962 57.7098C459.357 57.645 462.719 58.4335 465.735 59.9997ZM462.6 83.9141C464.466 82.1427 465.388 79.6475 465.388 76.3207C465.507 73.5987 464.542 70.9416 462.72 68.9217C461.852 68.0144 460.81 67.3015 459.65 66.8046C458.489 66.3078 457.253 66.0593 455.994 66.0593C454.736 66.0593 453.489 66.3078 452.339 66.8046C451.178 67.3015 450.137 68.0144 449.269 68.9217C447.533 70.9956 446.579 73.6095 446.579 76.3099C446.579 79.0103 447.533 81.6242 449.269 83.6981C450.126 84.627 451.167 85.3507 452.339 85.8476C453.499 86.3336 454.758 86.5821 456.016 86.5497C457.231 86.5713 458.446 86.3444 459.585 85.8908C460.702 85.4479 461.732 84.7674 462.6 83.9141Z" fill="#6D4AFF"/>
<path d="M480.227 51.0777C479.652 50.5485 479.197 49.9112 478.882 49.1983C478.567 48.4854 478.415 47.7185 478.426 46.9408C478.415 46.1631 478.578 45.3854 478.882 44.6617C479.197 43.938 479.652 43.2899 480.227 42.7606C481.366 41.6373 482.906 41 484.512 41C486.117 41 487.657 41.6373 488.796 42.7606C489.371 43.3007 489.827 43.9488 490.13 44.6617C490.434 45.3854 490.597 46.1523 490.586 46.9408C490.597 47.7185 490.445 48.4854 490.13 49.1983C489.827 49.9112 489.371 50.5485 488.796 51.0777C487.646 52.1795 486.106 52.7952 484.512 52.7952C482.906 52.7952 481.377 52.1795 480.227 51.0777ZM489.339 94.1754H479.706V58.4767H489.339V94.1754Z" fill="#6D4AFF"/>
<path d="M506 94.1754H496.357V42.3717H506V94.1754Z" fill="#6D4AFF"/>
<path fill-rule="evenodd" clip-rule="evenodd" d="M83.4613 41.1551V111H95.0393C101.094 111 106 106.026 106 99.9015V27.471C106 25.3784 103.596 24.239 102.003 25.5756L83.4613 41.1551Z" fill="url(#paint0_linear_10800_272794)"/>
<path fill-rule="evenodd" clip-rule="evenodd" d="M67.3128 54.7407L46.1604 73.6618C42.5538 76.8829 37.1709 76.9596 33.4777 73.848L0 45.6691V27.482C0 25.3894 2.40441 24.239 3.99653 25.5756L45.998 60.8761C50.0595 64.2944 55.9514 64.2944 60.0129 60.8761L67.3128 54.7407Z" fill="url(#paint1_linear_10800_272794)"/>
<path d="M83.4613 41.1661L67.3128 54.7407L67.3236 54.7406L46.1604 73.6618C42.5538 76.8829 37.1709 76.9596 33.4777 73.848L0 45.6691V99.9015C0 106.026 4.9063 111 10.9607 111L83.4613 111V41.1661Z" fill="url(#paint2_radial_10800_272794)"/>
<defs>
<linearGradient id="paint0_linear_10800_272794" x1="265.975" y1="166.754" x2="244.3" y2="-48.4041" gradientUnits="userSpaceOnUse">
<stop offset="0.271" stop-color="#E3D9FF"/>
<stop offset="1" stop-color="#7341FF"/>
</linearGradient>
<linearGradient id="paint1_linear_10800_272794" x1="62.6346" y1="111.798" x2="18.553" y2="-62.2799" gradientUnits="userSpaceOnUse">
<stop stop-color="#E3D9FF"/>
<stop offset="1" stop-color="#7341FF"/>
</linearGradient>
<radialGradient id="paint2_radial_10800_272794" cx="0" cy="0" r="1" gradientUnits="userSpaceOnUse" gradientTransform="translate(105.538 35.5272) scale(123.614 125.045)">
<stop offset="0.5561" stop-color="#6D4AFF"/>
<stop offset="0.9944" stop-color="#AA8EFF"/>
</radialGradient>
</defs>
</svg>
