<?xml version="1.0" encoding="UTF-8"?>
<!-- Generator: Adobe Illustrator 27.9.0, SVG Export Plug-In . SVG Version: 6.00 Build 0)  -->
<svg xmlns="http://www.w3.org/2000/svg" xmlns:xlink="http://www.w3.org/1999/xlink" version="1.1" id="Layer_1" x="0px" y="0px" viewBox="0 0 2000 456.5" style="enable-background:new 0 0 2000 456.5;" xml:space="preserve">
<style type="text/css">
	.st0{fill-rule:evenodd;clip-rule:evenodd;fill:#EC1218;}
	.st1{fill-rule:evenodd;clip-rule:evenodd;}
</style>
<g>
	<g>
		<path id="Logo-Icon_00000163792212036030492870000001230780939491195802_" class="st0" d="M380.5,268.5c0,13.6-8,26-23.6,28.4    c-26.8,4.8-82.8,7.6-130,7.6s-103.2-2.8-130-7.6c-15.6-2.8-23.2-15.2-23.2-28.4v-89.2c0-13.6,10.4-26.4,23.2-28.4    c8-1.6,26.4-2.8,40.8-2.8c5.6,0,9.6,4.4,10,10.8v62c27.6,0,51.6-1.6,79.6-1.6s51.6,1.6,79.6,1.6v-62c0-6.4,4.4-10.8,9.6-10.8    c14.4,0,32.8,1.2,40.8,2.8c12.8,2.4,23.6,15.2,23.6,28.4L380.5,268.5L380.5,268.5z M226.4,0C101.6,0,0,102.4,0,228.4    s101.6,228,226.4,228s226.4-102.4,226.4-228S352.1,0,226.4,0L226.4,0z"></path>
		<g id="Logo-Type_00000084498113604906978860000005557474143849685400_" transform="translate(150.220000, 27.826087)">
			<path id="Fill-1_00000135667064855792957650000015331613769716702125_" class="st1" d="M543.6,309.9     c-70.4,0-105.6-51.2-105.6-108c0-56.4,36.8-107.2,106.4-107.2c26.8,0,46,5.6,61.6,16.4l-20,33.2c-11.2-7.2-24-12-42.4-12     c-38,0-58,30.4-58,68.4c0,38.8,19.2,71.6,58.8,71.6c22,0,35.6-7.6,46.4-16l18.4,32C598.4,297.9,573.6,309.9,543.6,309.9"></path>
			<path id="Fill-3_00000119801247204962884170000011662956655168970411_" class="st1" d="M694,309.9c-52.4,0-75.6-40-75.6-79.6     s22.8-80.4,75.2-80.4c52.4,0,76.4,39.6,76.4,79.2C770,267.9,746.8,309.9,694,309.9 M692.8,181.9c-22.8,0-29.6,19.2-29.6,47.2     s8.8,48.4,31.2,48.4c22.8,0,30.4-18.8,30.4-47.2S716,181.9,692.8,181.9"></path>
			<path id="Fill-5_00000142873818446028614360000007834496435376023463_" class="st1" d="M836.9,153.9v97.6     c0,15.2,5.2,22.4,19.6,22.4c15.2,0,26.8-14.8,29.6-18.4V153.9h42.4v107.6c0,20,2.4,35.6,4.4,44.8h-41.6c-1.2-4.4-2.8-14-3.2-20     c-8,10.4-23.6,24-48.4,24c-33.2,0-45.2-21.6-45.2-49.6V153.9H836.9z"></path>
			<path id="Fill-7_00000101819055270501348800000014999971027953923211_" class="st1" d="M1032.5,309.9c-48.8,0-78.4-32-78.4-80     c0-51.2,33.6-80.4,80-80.4c24.4,0,38.8,7.2,46,12l-13.6,29.2c-6.4-4.4-16.4-8.8-31.2-8.8c-23.6,0-36.4,18.4-36.4,46.4     s12,48,37.2,48c16.8,0,27.6-6,32-8.8l12.8,28.4C1073.7,300.7,1060.1,309.9,1032.5,309.9"></path>
			<path id="Fill-9_00000076596464703444967940000004907392150626836134_" class="st1" d="M1194.5,306.3v-97.6     c0-15.2-5.2-22.4-19.2-22.4c-15.6,0-27.2,14.4-30,18.4v102h-42.4V81.1h42.4v90.8c7.6-8.4,22-22,46.8-22     c33.2,0,45.2,21.2,45.2,49.6v106.4L1194.5,306.3L1194.5,306.3z"></path>
			<path id="Fill-11_00000047062155426745826430000018169517062460988092_" class="st1" d="M1314.1,81.1v84.4c6.8-6.8,20-16,36.8-16     c37.6,0,63.6,26,63.6,78.8c0,52.4-34.8,81.2-80.4,81.2c-34.4,0-55.2-8.4-62.4-12.4v-216C1271.3,81.1,1314.1,81.1,1314.1,81.1z      M1314.1,273.1c2.8,0.8,9.2,3.2,20,3.2c22,0,35.2-16.4,35.2-47.6c0-28-9.2-44.8-30.8-44.8c-12.8,0-22,8-24.8,11.2L1314.1,273.1     L1314.1,273.1z"></path>
			<path id="Fill-13_00000041256847898654367470000015699709784802218684_" class="st1" d="M1519.8,306.3c-1.2-4-2.4-11.6-2.8-16.4     c-6.4,8-20.8,20-42,20c-25.6,0-45.6-15.6-45.6-42.8c0-39.6,40-54,80.4-54h5.2v-8.8c0-12.8-5.2-20.4-24-20.4     c-19.2,0-32.4,10-38.4,14.4l-18-26.4c9.2-8,28.8-22,61.2-22c41.6,0,61.2,16.4,61.2,56.8v53.6c0,20.8,2.4,36,4.4,46     C1561.4,306.3,1519.8,306.3,1519.8,306.3z M1515,239.1h-5.2c-23.2,0-39.2,6.8-39.2,24.4c0,10.8,8.4,15.6,17.6,15.6     c14.4,0,22.4-8,26.8-12.8L1515,239.1L1515,239.1z"></path>
			<path id="Fill-15_00000013906748306909353850000005341550970502099874_" class="st1" d="M1633.8,309.9c-27.2,0-44.4-8-53.6-14.4     l14.4-30c5.6,4,20.4,12.4,37.2,12.4c15.6,0,24.4-4.4,24.4-13.2c0-10-16.8-12.8-38.4-23.2c-20.8-10-32.8-22-32.8-44.8     c0-28.8,22.4-47.2,56.8-47.2c26,0,41.6,8,48.8,12l-14.8,29.2c-5.6-4-17.6-9.6-32-9.6c-14.4,0-20.4,5.2-20.4,12.8     c0,10,14,12.4,30.8,19.2c23.6,9.6,40.4,20.8,40.4,46.8C1693.8,293.1,1671,309.9,1633.8,309.9"></path>
			<path id="Fill-17_00000163779338955225987500000006431357672241217449_" class="st1" d="M1792.2,277.9c20.4,0,31.6-6.4,38.8-10.4     l13.6,27.6c-10,5.6-25.6,14.8-56.4,14.8c-50.4,0-79.2-32-79.2-80.8c0-48.4,33.2-79.2,74.8-79.2c47.6,0,70.4,33.2,65.2,90.4h-94     C1756.6,263.1,1767.8,277.9,1792.2,277.9L1792.2,277.9z M1808.2,211.1c-0.4-16.8-6.8-30.4-25.2-30.4c-16.8,0-26.4,10.8-28.8,30.4     H1808.2z"></path>
		</g>
	</g>
</g>
</svg>
