<?xml version="1.0" encoding="UTF-8"?> <svg xmlns="http://www.w3.org/2000/svg" id="Layer_2" data-name="Layer 2" viewBox="0 0 288 70.64"><defs><style> .cls-1 { fill-rule: evenodd; } </style></defs><g id="Layer_4_copy" data-name="Layer 4 copy"><g><path class="cls-1" d="m7.21,61.83c7.86.74,11.28.8,19.4.36,4.03-.22,6.18-1.14,9.52-.7,3.08.4,5.85.94,8.38,1.05,6.28,0,10.18-.07,10.71,3.1.33,2.06-2.43,4.04-4.16,4.04-9.23,0-10.59-.74-17.38-.88-4.38-.08-6.06.75-9.97.9-3.36.14-6.08.17-8.81-.02-2.01-.13-4.25-.61-6.36-.44-4.3.35-8.13.17-8.46-1.84-.7-4.17,4.34-5.83,7.15-5.58Z"></path><path class="cls-1" d="m17.48,51.96c-.03,3.37-4.73,3.42-7.93,3.42s-6.83-2.12-6.82-4.64c.02-2.9-.41-4.31-.41-7.07,0-1.41.08-2.17.03-3.59-.15-4.93,4.02-4.47,4.07-8.77.01-.94-.62-1.45-1.35-2.45-.65-.89-1.41-2.27-1.65-3.07-1-3.23-1.22-3.69-1.22-7.11,0-2.69.57-4.3.57-7C2.76,7.6,1.14,1.06,6.18,1.73c1.16.15,1.83,0,3,0L14.41.11c5.19.35,4.25,4.37,6.36,7.06,1.03,1.35,2.62,1.05,3.73,2.35,1.15,1.35,3.74,4.88,5.82,8.23,1.04,1.67,3.3,4.87,3.71,5.46.37.61,3.3,5.14,4.55,4.47.7-.38.82-3.2.82-5.18,0-.43-.07-1.65.13-3.1-.24-.94-.32-6.37-.47-7.47,0-1.17.42-2.07.42-3.49,0-3.48-.2-7.63,4.88-7.39,1.24.05,2.29.12,3.54.12,3.63,0,6.16,2,6.9,6.28,1,5.81-.04,11.69.48,17.53.59,6.52-.32,7.83-.59,13.59-.15,3.24.51,4.34.71,8.05.32,6.19-2.04,9.23-7.19,8.86-1.05-.08-2.47-.54-4.09-.8-3.18.11-7.23-1.06-11.12-8.17-2.08-3.81-3.64-7.15-6.71-10.21-1.69-1.7-2.17-2.56-3.58-4.45-1.04-1.39-1.21-3.95-2.97-3.95-1.52,0-1.67,1.84-1.67,3.36,0,1.11.07,2.83,0,3.77-.2,3.06-.69,4.8-.27,8.4.27,2.26-1.24,3.41-1.24,5.69,0,.8.93,1.67.92,2.84Z"></path><path class="cls-1" d="m81.33,14.88c2.5,0,3.91.58,6.42.58,2.76,0,4.24-.81,7-.72,6.49.2,12.58,6.39,13,12.12.16,2.24-1.18,4.35-1.18,7.17,0,2.39,1.63,3.47,1.63,5.87,0,1.99-.74,3.4-.74,5.4,0,2.11.74,2.94.74,5.04,0,1.99-2,3.55-3.36,3.76-1.29.2-2.06,0-3.51,0-2.32,0-3.69.55-5.57-.23-1.37-.57-1.34-1.97-3.12-1.96-1.02,0-1.78,1.38-3.05,1.74-2.33.68-3.57.6-5.84,1.04-2.5.49-4.01,1.4-6.39,1.38-5.76-.06-11.75-2.46-11.78-8.71,0-1.56,0-4.43,0-5.99-.03-4.88,4.14-7.33,8.38-7.06,1.31.09,1.98.37,3.28.44,2.4.15,5.11-3.31,8.03-3.64,6.32-.69,9.71-.86,9.83-5.18.05-2.03-1-3.45-2.63-3.45-1.16,0-2.8.26-3.94.47-3.63.69-5.99,1.09-8.93,4.46-.54.62-1.66.54-3.48.54-4.1,0-9.53-.52-9.43-4.76.07-2.83,2.43-4.13,4.89-5.44,3.48-1.85,5.77-2.9,9.72-2.9Zm11.35,29.54c1.67-.5,3.34-1.08,3.48-2.45.15-1.41-.9-2.19-2.14-2.99-1.01-.66-.74-1.52-2.73-1.55-1.38-.02-2.12.57-3.5.53-7.02-.19-7.99,1.1-8.34,4.81-.33,3.52,2.17,4.77,5.07,4.77,3.41,0,4.89-2.07,8.16-3.12Z"></path><path class="cls-1" d="m151.6,15.32c6.91-.16,9.34,1.55,9.51,7.06.08,2.3-1.06,3.31-1.49,4.77-.48,1.59-.31,3.2-.31,5.3,0,1.96.55,3.7.73,5.36.42,2.37.3,4.93.59,7.22.15,1.19.6,2.15.7,3.38.15,1.89.05,3.77.13,6.05.22,5.97-2.99,8.87-3.48,9.49-.55.68-.83,1.46-1.57,2.23-.92.95-1.92,1.31-2.79,1.92-1.46,1.04-2.9,2.03-4.22,2.23-2.33.36-4.66-1.77-8.12-1.56-2.89.17-5.2,1.85-10.18,1.88-7.42.04-12.26-5.26-12.83-10.06-.25-2.06,1.72-3.81,3.79-3.79,2.33.02,4.8,1.74,5.81,2.22,1.29.71,3.88.43,5.64,1.14,1.95.8,3.81,1.93,4.69,1.97,1.29.07,1.86-.07,2.97-.33,3.9-.91,4.95-4.28,4.95-7.98,0-1.67-.07-3.86-1.75-3.76-3.63.21-4.85,3.66-10.53,3.59-5.24-.05-8.8-2.97-10.59-7.74-.3-.8-.7-1.94-1.03-2.77-.43-1.03-1.9-2.02-2.55-3.09-.46-.94-.5-2.9-.5-4.57,0-3.53-.23-5.75,0-9.08.16-2.44.58-2.24,1.03-3.87,1.39-5.06,6.5-8.41,14.53-8.05,2.4.1,5.18,1.05,7.11,2.23,1.56.95,2.62,1.9,3.69,1.87,1.74-.03,1.67-3.15,6.06-3.25Zm-19.26,17.68c-.11,4.98.84,10,6.62,10.07,3.92.05,6.97-3.24,7.11-6.86.07-1.64.13-2.78-.13-4.39-.63-3.73-3.39-6.73-6.69-6.97-.97-.07-2.44.32-3.69,1.32-1.98,1.59-3.14,3.9-3.2,6.83Z"></path><path class="cls-1" d="m179.04.08c.92,0,1.43,0,2.35,0,3.01.04,3.86,1.97,3.95,4.11.2,3.98-1.34,5.9-3.41,6.03-.78.05-1.72.09-2.5.09-3.66,0-7.6-.34-7.29-5.28.16-2.5,1.68-5.11,4.95-5.03,1,.02.94.08,1.95.08Z"></path><path class="cls-1" d="m175.37,15.53c1.4-.14,2.2-.03,3.6-.03.5,0,1.06-.04,1.55-.03,2.11.06,3.9.6,5.05,2.51,1.08,1.79.76,3.75.76,5.87s.27,3.22-.03,5.24c-.22,1.43-.9,1.97-.9,3.59,0,1.49.52,2.6.73,4.27.34,2.66.48,3.1.42,6.87-.05,3.24.95,6.62-.9,9.29-1.07,1.55-3.3,2.44-5.69,2.22-5.19-.47-5.48-1.47-6.95-3.6-.85-1.2-1.6-3.84-1.64-6.43-.05-3.06,1.97-2.99,2.04-7.59.01-1.43-.17-2.4-.48-3.53-.19-.66-.45-1.35-.59-2.25-.11-.77-.13-1.2-.12-1.98.06-3.43-.89-4.8-.98-7.83-.09-2.91,1.15-6.25,4.13-6.56Z"></path><path class="cls-1" d="m229.71,17.04c6.69,1.8,10.78,9.72,11.39,16.24.15,1.58.02,2.85-.2,4.05-.61,3.31-.8,5-2.39,8.41-1.38,2.95-4.92,6.3-8.11,6.99-1.74.37-2.5-.57-4.28-.54-2.47.03-3.6,3.43-6.4,3.17-2.21-.2-2.38-.94-6.15-.9-.91,0-1.48-.12-2.38-.12-.77,0-.55-.02-1.31-.02-3.68,0-4.12-2.2-7.43-4.02-1.7-.94-2.31-1.65-3.87-2.91-1.9-1.54-.82-5.87-2.04-8.88-.69-1.73-1.31-2.63-1.55-5.05-.17-1.75.17-2.82.75-4.49.6-1.69.87-2.46,1.64-3.62.96-1.41,2.17-1.09,3.34-1.78,4.39-2.6,3.34-7.94,9.52-7.53.9.05,1.59.26,3.11.26,2.07,0,3.6-.77,5.67-.77,1.59,0,2.05.26,3.59.71,1.55.46,2.7.1,4.41.34,1.06.15,1.67.19,2.69.47Zm-19.44,16.37c0,.85-.23,1.65-.23,2.51,0,5.42,2.76,9.77,8.18,9.77,3.78,0,7.04-3.38,7.04-7.15,0-1.13.24-2.39.24-3.52,0-5.37-2.84-10.74-7.62-10.58-3.92.13-7.61,4.5-7.61,8.98Z"></path><path class="cls-1" d="m270.47,14.43c6.35,0,14.12,2.58,14.19,7.8.03,2.43-2.18,2.73-3.94,3.07-1.72.33-2.82.82-4.6.74-3.45-.17-5.64-3.19-9.97-3.33-1.74-.05-4.34,1.37-4.35,2.84-.01,2.16,2.24,3.1,4.35,3.46,2.87.48,3.04,1.13,4.77,1.34,1.87.23,2.99.06,4.85.19,2.22.17,3.99,2.14,6.83,3.33,4.66,1.96,5.64,4.85,5.36,8.96-.08,1.06-.45,2.28-.94,3.68-1.77,5.03-4.8,6.12-11.71,7.06-1.12.15-1.8,1.11-2.84,1.42-1.74.51-3.3.4-5.18.52-1.33.08-2.48.44-4.45.42-1.97-.03-3.17-.77-4.68-1.19-1.49-.42-3.37-.55-5.12-1.42-2.74-1.35-4.92-3.1-4.91-6.18,0-2.22,3.1-3.64,5.38-3.6,1.31.02,3.07-.36,5.26-.36,1.97,0,3.5,2.04,5.09,3.17,1.68,1.19,2.71,1.48,4.94,1.48,2.64,0,5.54-1.12,5.66-3.38.14-3-3.36-2.98-5.63-3.91-2.45-1-4.4-3.25-7.64-3.25-2.13,0-2.85.28-4.97.17-3.57-.2-8.77-4.46-8.23-10.83.34-4,1.95-6.78,5.39-8.81,1.83-1.08,3.25-2.34,5.46-2.77,3.09-.62,7.02-.62,11.64-.62Z"></path></g></g></svg> 